<?xml version="1.0" encoding="UTF-8"?>
<svg version="1.1" xmlns="http://www.w3.org/2000/svg" width="287" height="287">
<path d="M0 0 C0.74209717 -0.00067474 1.48419434 -0.00134949 2.2487793 -0.00204468 C13.1827029 0.01377374 23.49513529 0.4735428 34.125 3.25 C34.77114258 3.40033691 35.41728516 3.55067383 36.08300781 3.70556641 C54.42277119 7.97774641 72.31657633 16.65807456 87.125 28.25 C88.04925781 28.95511719 88.97351563 29.66023438 89.92578125 30.38671875 C120.42975745 54.4188471 139.23048694 88.79025922 144.125 127.25 C144.36477043 132.53875447 144.37069611 137.83135687 144.375 143.125 C144.37567474 143.86709717 144.37634949 144.60919434 144.37704468 145.3737793 C144.36122626 156.3077029 143.9014572 166.62013529 141.125 177.25 C140.89949463 178.21921387 140.89949463 178.21921387 140.66943359 179.20800781 C136.39725359 197.54777119 127.71692544 215.44157633 116.125 230.25 C115.41988281 231.17425781 114.71476562 232.09851563 113.98828125 233.05078125 C89.9561529 263.55475745 55.58474078 282.35548694 17.125 287.25 C11.83624553 287.48977043 6.54364313 287.49569611 1.25 287.5 C0.50790283 287.50067474 -0.23419434 287.50134949 -0.9987793 287.50204468 C-11.9327029 287.48622626 -22.24513529 287.0264572 -32.875 284.25 C-33.52114258 284.09966309 -34.16728516 283.94932617 -34.83300781 283.79443359 C-53.17277119 279.52225359 -71.06657633 270.84192544 -85.875 259.25 C-86.79925781 258.54488281 -87.72351563 257.83976562 -88.67578125 257.11328125 C-119.17975745 233.0811529 -137.98048694 198.70974078 -142.875 160.25 C-143.11477043 154.96124553 -143.12069611 149.66864313 -143.125 144.375 C-143.12567474 143.63290283 -143.12634949 142.89080566 -143.12704468 142.1262207 C-143.11122626 131.1922971 -142.6514572 120.87986471 -139.875 110.25 C-139.72466309 109.60385742 -139.57432617 108.95771484 -139.41943359 108.29199219 C-135.14725359 89.95222881 -126.46692544 72.05842367 -114.875 57.25 C-114.16988281 56.32574219 -113.46476562 55.40148438 -112.73828125 54.44921875 C-85.18040052 19.47000568 -44.38321854 0.03608491 0 0 Z " fill="#001B7D" transform="translate(142.875,-0.24999999999999997)"/>
<path d="M0 0 C28.38 0 56.76 0 86 0 C86.04125 7.38375 86.0825 14.7675 86.125 22.375 C86.14320801 24.7061084 86.16141602 27.0372168 86.18017578 29.43896484 C86.18601512 31.27962005 86.191112 33.12027783 86.1953125 34.9609375 C86.20554443 35.92233643 86.21577637 36.88373535 86.22631836 37.87426758 C86.22668091 39.2443396 86.22668091 39.2443396 86.22705078 40.64208984 C86.231492 41.43706879 86.23593323 42.23204773 86.24050903 43.05111694 C86 45 86 45 84 47 C81.42832947 47.30107117 81.42832947 47.30107117 78.13256836 47.36987305 C76.90046127 47.39877121 75.66835419 47.42766937 74.39891052 47.45744324 C73.04591019 47.47710643 71.6928856 47.49515722 70.33984375 47.51171875 C69.65785982 47.52111795 68.97587589 47.53051716 68.27322578 47.54020119 C64.65784623 47.58781467 61.04261241 47.62147057 57.42700195 47.64526367 C53.70934459 47.67286704 49.99466729 47.75191121 46.27809811 47.84280682 C43.40652066 47.90294042 40.5356346 47.92256156 37.66348457 47.93177223 C36.29470003 47.94328846 34.92594864 47.96995907 33.55778313 48.01270103 C22.92669761 48.324912 22.92669761 48.324912 18.09500122 45.00234985 C15.80212525 42.77367274 13.80320534 40.63910306 12 38 C12 37.34 12 36.68 12 36 C10.68 35.34 9.36 34.68 8 34 C0 25 0 25 0 0 Z " fill="#F9FAFA" transform="translate(93,145)"/>
<path d="M0 0 C0.80677689 0.00045319 1.61355377 0.00090637 2.44477844 0.00137329 C3.71301956 -0.00366463 3.71301956 -0.00366463 5.00688171 -0.00880432 C7.81635486 -0.01834386 10.6257686 -0.02025893 13.43525696 -0.02133179 C15.37959824 -0.02454226 17.32393927 -0.02790616 19.26828003 -0.03141785 C23.34974223 -0.03741662 27.43118323 -0.03925698 31.51264954 -0.03866577 C36.75316829 -0.0385641 41.9935517 -0.05221806 47.23403835 -0.06943798 C51.25136952 -0.08053405 55.26866772 -0.08258572 59.28601265 -0.08205605 C61.21858754 -0.08323972 63.15116318 -0.087683 65.08372307 -0.09538841 C67.78229741 -0.10514028 70.48057474 -0.10232941 73.17915344 -0.09628296 C73.9839061 -0.10190247 74.78865875 -0.10752197 75.61779785 -0.11331177 C81.14834778 -0.08167846 81.14834778 -0.08167846 83.37666321 2.14663696 C83.33966743 7.35379289 79.98180866 10.37632092 76.62666321 13.95913696 C76.10072571 14.55661743 75.57478821 15.1540979 75.03291321 15.76968384 C71.07771775 20.05284723 71.07771775 20.05284723 67.48603821 20.53335571 C66.78994446 20.40573853 66.09385071 20.27812134 65.37666321 20.14663696 C65.37666321 23.11663696 65.37666321 26.08663696 65.37666321 29.14663696 C47.55666321 29.14663696 29.73666321 29.14663696 11.37666321 29.14663696 C11.37666321 25.84663696 11.37666321 22.54663696 11.37666321 19.14663696 C10.36603821 19.29101196 9.35541321 19.43538696 8.31416321 19.58413696 C2.76256468 18.96729268 0.80757522 16.32552032 -2.62333679 12.14663696 C-3.14669617 11.52530884 -3.67005554 10.90398071 -4.20927429 10.26382446 C-5.62333679 8.45913696 -5.62333679 8.45913696 -7.62333679 5.14663696 C-6.84091986 -0.22269925 -5.15723946 0.03010961 0 0 Z " fill="#F6F8F9" transform="translate(100.62333679199219,78.85336303710938)"/>
<path d="M0 0 C1.12061577 0.00607269 1.12061577 0.00607269 2.26387024 0.01226807 C3.05098892 0.00876343 3.8381076 0.00525879 4.64907837 0.00164795 C7.25839482 -0.0071753 9.86744151 -0.00131819 12.47676086 0.00543213 C14.2851517 0.00408565 16.09354217 0.00214526 17.90193176 -0.00036621 C21.69497621 -0.00331828 25.48792656 0.0009828 29.28096008 0.01031494 C34.15041849 0.02170953 39.01965644 0.0151505 43.88910675 0.00317001 C47.62421845 -0.00404637 51.35927762 -0.00176168 55.09439087 0.0034256 C56.89019802 0.00476271 58.68600989 0.00311224 60.48181152 -0.00153351 C62.9887206 -0.00659513 65.49526935 0.0011062 68.00215149 0.01226807 C68.74922867 0.0082196 69.49630585 0.00417114 70.26602173 0 C75.40448217 0.04252844 75.40448217 0.04252844 77.63301086 2.27105713 C77.63301086 7.88105713 77.63301086 13.49105713 77.63301086 19.27105713 C49.58301086 19.27105713 21.53301086 19.27105713 -7.36698914 19.27105713 C-7.36698914 0.06097284 -7.36698914 0.06097284 0 0 Z " fill="#F7F9FA" transform="translate(101.36698913574219,116.72894287109375)"/>
<path d="M0 0 C0.99 0.66 1.98 1.32 3 2 C3.38095093 4.91575623 3.38095093 4.91575623 3.38818359 8.69702148 C3.39344055 9.38499817 3.39869751 10.07297485 3.40411377 10.78179932 C3.41734492 13.06179339 3.40856431 15.34109226 3.3984375 17.62109375 C3.40045759 19.20288731 3.40336848 20.78467997 3.40713501 22.36647034 C3.41156276 25.68458914 3.4051139 29.00246593 3.39111328 32.32055664 C3.37403486 36.57572706 3.38385086 40.8303293 3.40183067 45.08547878 C3.41266841 48.35313705 3.40922203 51.62066051 3.4014473 54.88832283 C3.39944452 56.45722584 3.40190728 58.02614106 3.40888596 59.59502983 C3.41649898 61.78821108 3.404899 63.98047138 3.38818359 66.17358398 C3.38579681 67.42219711 3.38341003 68.67081024 3.38095093 69.95726013 C3 73 3 73 1.70620728 74.88368225 C-0.70041333 76.45825841 -2.97268027 76.72193374 -5.81138611 76.58518982 C-10.48279915 75.33615116 -13.43052003 71.954442 -16 68 C-17.14130002 63.36288239 -17.09969903 58.87861858 -17.02734375 54.12109375 C-17.0301993 52.7816544 -17.0355801 51.44221831 -17.04335022 50.10279846 C-17.05059773 47.30740517 -17.02970455 44.51407456 -16.98803711 41.71899414 C-16.93679988 38.15153865 -16.9527571 34.58816854 -16.98941708 31.02065945 C-17.01091487 28.25868915 -16.99838499 25.49766418 -16.97564888 22.73573494 C-16.96506373 20.78660091 -16.9813848 18.83737999 -16.99827576 16.88829041 C-16.87644146 11.13243839 -16.7849653 7.01530291 -12.73657227 2.67602539 C-8.922565 -0.70344775 -4.89236383 -1.07138975 0 0 Z " fill="#F8FAFB" transform="translate(223,117)"/>
<path d="M0 0 C2.3125 0.5 2.3125 0.5 4.3125 2.5 C4.56646729 4.96018982 4.56646729 4.96018982 4.57128906 8.09545898 C4.57759338 9.26684921 4.58389771 10.43823944 4.59039307 11.64512634 C4.5863446 12.91594559 4.58229614 14.18676483 4.578125 15.49609375 C4.58003845 16.79571548 4.5819519 18.09533722 4.58392334 19.43434143 C4.58687425 22.18747704 4.58257883 24.94048297 4.57324219 27.69360352 C4.56185873 31.22227293 4.56840007 34.75063774 4.58038712 38.27929592 C4.58935492 41.64325291 4.58307417 45.00712811 4.578125 48.37109375 C4.58217346 49.63988876 4.58622192 50.90868378 4.59039307 52.21592712 C4.58408875 53.39046951 4.57778442 54.5650119 4.57128906 55.77514648 C4.56890228 57.32829811 4.56890228 57.32829811 4.56646729 58.91282654 C4.3125 61.5 4.3125 61.5 2.3125 64.5 C0 65.0625 0 65.0625 -2.6875 64.5 C-5.76337552 61.80553533 -7.39799561 60.04447384 -8.15826416 55.98852539 C-8.34944829 52.89858722 -8.38037039 49.84577348 -8.3515625 46.75 C-8.35873795 45.05278809 -8.35873795 45.05278809 -8.36605835 43.32128906 C-8.36945373 40.93423061 -8.36027685 38.54712543 -8.33935547 36.16015625 C-8.31258778 32.5119634 -8.33911879 28.86684745 -8.37109375 25.21875 C-8.36778959 22.89582656 -8.36138324 20.57290503 -8.3515625 18.25 C-8.36168365 17.16235352 -8.37180481 16.07470703 -8.38223267 14.95410156 C-8.25205499 6.51892111 -8.25205499 6.51892111 -5.31396484 2.796875 C-2.6875 0.5 -2.6875 0.5 0 0 Z " fill="#E8EBF2" transform="translate(69.6875,117.5)"/>
<path d="M0 0 C3.3 0 6.6 0 10 0 C10 18.81 10 37.62 10 57 C6.7 57 3.4 57 0 57 C0 38.19 0 19.38 0 0 Z " fill="#F4F6F7" transform="translate(188,126)"/>
<path d="M0 0 C2.64 0 5.28 0 8 0 C8 15.84 8 31.68 8 48 C5.36 48 2.72 48 0 48 C0 32.16 0 16.32 0 0 Z " fill="#FAFDFD" transform="translate(78,126)"/>
<path d="M0 0 C0.33 0 0.66 0 1 0 C1 5.28 1 10.56 1 16 C29.05 16 57.1 16 86 16 C86 11.05 86 6.1 86 1 C86.33 1 86.66 1 87 1 C87 6.28 87 11.56 87 17 C45.42 17.495 45.42 17.495 3 18 C3 18.99 3 19.98 3 21 C1.35 21 -0.3 21 -2 21 C-2 17 -2 17 -1 15 C-0.76827173 12.45384991 -0.58105471 9.92603775 -0.4375 7.375 C-0.39431641 6.66859375 -0.35113281 5.9621875 -0.30664062 5.234375 C-0.20055249 3.48981463 -0.09977111 1.74493303 0 0 Z " fill="#1F3170" transform="translate(93,120)"/>
<path d="M0 0 C0.33 0 0.66 0 1 0 C1 18.81 1 37.62 1 57 C4.3 57 7.6 57 11 57 C11 38.19 11 19.38 11 0 C11.33 0 11.66 0 12 0 C12 18.81 12 37.62 12 57 C12.66 57 13.32 57 14 57 C14 58.32 14 59.64 14 61 C13.01 61 12.02 61 11 61 C11 60.01 11 59.02 11 58 C5.555 58.495 5.555 58.495 0 59 C0 39.53 0 20.06 0 0 Z " fill="#314082" transform="translate(187,126)"/>
<path d="M0 0 C0.33 0 0.66 0 1 0 C1.33 1.98 1.66 3.96 2 6 C2.33 6 2.66 6 3 6 C3.33 21.84 3.66 37.68 4 54 C6.64 54.33 9.28 54.66 12 55 C12 55.33 12 55.66 12 56 C11.37351562 56.02578125 10.74703125 56.0515625 10.1015625 56.078125 C9.28429687 56.13484375 8.46703125 56.1915625 7.625 56.25 C6.81289062 56.29640625 6.00078125 56.3428125 5.1640625 56.390625 C2.81161073 56.7922092 2.81161073 56.7922092 1.7109375 59.046875 C1.47632812 59.69140625 1.24171875 60.3359375 1 61 C0.67 61 0.34 61 0 61 C0 40.87 0 20.74 0 0 Z " fill="#01106A" transform="translate(74,120)"/>
<path d="M0 0 C1.875 1.1875 1.875 1.1875 3 3 C3.42822025 5.85480169 3.40659584 7.34492892 1.875 9.8125 C-0.87155972 11.55198782 -2.81846974 11.39769128 -6 11 C-7.875 9.8125 -7.875 9.8125 -9 8 C-9.42822025 5.14519831 -9.40659584 3.65507108 -7.875 1.1875 C-5.12844028 -0.55198782 -3.18153026 -0.39769128 0 0 Z " fill="#081C74" transform="translate(168,154)"/>
<path d="M0 0 C3.0625 0.3125 3.0625 0.3125 5 1.4375 C6.0625 3.3125 6.0625 3.3125 5.875 6.375 C5.0625 9.3125 5.0625 9.3125 3.0625 11.3125 C0.0625 11.5625 0.0625 11.5625 -2.9375 11.3125 C-4.9375 9.3125 -4.9375 9.3125 -5.1875 5.8125 C-4.87458101 1.43163414 -4.40975115 0.46912246 0 0 Z " fill="#051B77" transform="translate(135.9375,153.6875)"/>
<path d="M0 0 C3.0625 0.3125 3.0625 0.3125 5 1.4375 C6.0625 3.3125 6.0625 3.3125 5.875 6.375 C5.0625 9.3125 5.0625 9.3125 3.0625 11.3125 C0.0625 11.5625 0.0625 11.5625 -2.9375 11.3125 C-4.9375 9.3125 -4.9375 9.3125 -5.1875 5.8125 C-4.87458101 1.43163414 -4.40975115 0.46912246 0 0 Z " fill="#0D227C" transform="translate(107.9375,153.6875)"/>
<path d="M0 0 C0.66 0.33 1.32 0.66 2 1 C1.67468292 1.71582245 1.34936584 2.4316449 1.01419067 3.16915894 C-0.03759276 6.10493011 -0.24229295 8.1922463 -0.22705078 11.29345703 C-0.22689972 12.3244754 -0.22674866 13.35549377 -0.22659302 14.41775513 C-0.21627045 15.51997406 -0.20594788 16.62219299 -0.1953125 17.7578125 C-0.1924826 18.89781708 -0.18965271 20.03782166 -0.18673706 21.21237183 C-0.1755579 24.85002203 -0.1504712 28.48742453 -0.125 32.125 C-0.11496603 34.58202767 -0.10584091 37.03905923 -0.09765625 39.49609375 C-0.07799554 44.89705392 -0.04957704 50.29788682 -0.01345825 55.69876099 C-0.00312405 57.46581613 0 59.23291463 0 61 C-2.56721164 58.43278836 -2.25275237 57.46063507 -2.25878906 53.89526367 C-2.26509338 52.83043259 -2.27139771 51.7656015 -2.27789307 50.66850281 C-2.2738446 49.51332657 -2.26979614 48.35815033 -2.265625 47.16796875 C-2.26753845 45.98407059 -2.2694519 44.80017242 -2.27142334 43.58039856 C-2.27278662 41.07109363 -2.2690803 38.56178168 -2.26074219 36.05249023 C-2.25007329 32.21386795 -2.26061831 28.37571674 -2.2734375 24.53710938 C-2.27211537 22.10156147 -2.26955188 19.66601385 -2.265625 17.23046875 C-2.26967346 16.0813652 -2.27372192 14.93226166 -2.27789307 13.74833679 C-2.27158875 12.67404922 -2.26528442 11.59976166 -2.25878906 10.49291992 C-2.25719788 9.55075119 -2.25560669 8.60858246 -2.25396729 7.63786316 C-1.9785429 4.77713314 -1.18782067 2.60387991 0 0 Z " fill="#081D64" transform="translate(63,118)"/>
<path d="M0 0 C3.16774824 2.39721488 5.90942317 4.58905886 8 8 C8 8.99 8 9.98 8 11 C7.34 11 6.68 11 6 11 C6 10.01 6 9.02 6 8 C2.27385847 9.11854586 2.27385847 9.11854586 0 12 C-0.99 12 -1.98 12 -3 12 C-2 10 -1 8 0 6 C0.66 6 1.32 6 2 6 C2 5.34 2 4.68 2 4 C1.01 4.33 0.02 4.66 -1 5 C-0.67 3.35 -0.34 1.7 0 0 Z " fill="#031A71" transform="translate(93,85)"/>
<path d="M0 0 C0.33 0 0.66 0 1 0 C1 5.28 1 10.56 1 16 C3.31 16.33 5.62 16.66 8 17 C8 17.33 8 17.66 8 18 C6.35 18 4.7 18 3 18 C3 18.99 3 19.98 3 21 C1.35 21 -0.3 21 -2 21 C-2 17 -2 17 -1 15 C-0.76827173 12.45384991 -0.58105471 9.92603775 -0.4375 7.375 C-0.39431641 6.66859375 -0.35113281 5.9621875 -0.30664062 5.234375 C-0.20055249 3.48981463 -0.09977111 1.74493303 0 0 Z " fill="#263B85" transform="translate(93,120)"/>
<path d="M0 0 C5.3820598 -0.35880399 5.3820598 -0.35880399 7.9375 1.125 C9 3 9 3 8.8125 6.125 C8.544375 7.07375 8.27625 8.0225 8 9 C7.01 9.495 7.01 9.495 6 10 C6 8.02 6 6.04 6 4 C3.36 4 0.72 4 -2 4 C-1.34 2.68 -0.68 1.36 0 0 Z " fill="#253377" transform="translate(105,154)"/>
<path d="M0 0 C2 1 4 2 6 3 C5.67 4.65 5.34 6.3 5 8 C3.35 8 1.7 8 0 8 C0.99 7.67 1.98 7.34 3 7 C3 6.34 3 5.68 3 5 C2.01 4.67 1.02 4.34 0 4 C0 2.68 0 1.36 0 0 Z " fill="#EDF1EF" transform="translate(67,174)"/>
<path d="M0 0 C2.475 0.495 2.475 0.495 5 1 C4.34 3.31 3.68 5.62 3 8 C4.65 8 6.3 8 8 8 C8 8.33 8 8.66 8 9 C5.125 9.125 5.125 9.125 2 9 C0 7 0 7 -0.125 3.375 C-0.08375 2.26125 -0.0425 1.1475 0 0 Z " fill="#1C2D73" transform="translate(131,156)"/>
<path d="M0 0 C0.66 0 1.32 0 2 0 C1.61121002 2.81872737 1.29189635 3.77195598 -1 5.5625 C-1.66 6.036875 -2.32 6.51125 -3 7 C-3.33 7.99 -3.66 8.98 -4 10 C-5.32 9.67 -6.64 9.34 -8 9 C-6.71520959 7.49410612 -5.42195918 5.99542625 -4.125 4.5 C-3.04605469 3.24703125 -3.04605469 3.24703125 -1.9453125 1.96875 C-1.30335938 1.3190625 -0.66140625 0.669375 0 0 Z " fill="#172773" transform="translate(182,86)"/>
<path d="M0 0 C1.32 0 2.64 0 4 0 C4.33 1.32 4.66 2.64 5 4 C3.68 4.99 2.36 5.98 1 7 C0.34 6.34 -0.32 5.68 -1 5 C-0.625 2.375 -0.625 2.375 0 0 Z " fill="#EFF4F2" transform="translate(174,87)"/>
<path d="M0 0 C5.45454545 -0.36363636 5.45454545 -0.36363636 7.875 1.25 C9 3 9 3 9 7 C8.34 7 7.68 7 7 7 C6.690625 6.0409375 6.690625 6.0409375 6.375 5.0625 C5.10461791 2.65074923 5.10461791 2.65074923 1.875 2.25 C0.92625 2.1675 -0.0225 2.085 -1 2 C-0.67 1.34 -0.34 0.68 0 0 Z " fill="#2A3778" transform="translate(133,154)"/>
<path d="M0 0 C0.763125 0.0825 1.52625 0.165 2.3125 0.25 C2.6425 1.57 2.9725 2.89 3.3125 4.25 C0.3425 4.25 -2.6275 4.25 -5.6875 4.25 C-3.34903846 0.31153846 -3.34903846 0.31153846 0 0 Z " fill="#E8EEF7" transform="translate(69.6875,117.75)"/>
<path d="M0 0 C1.65 0 3.3 0 5 0 C5 2.97 5 5.94 5 9 C3.02 9.33 1.04 9.66 -1 10 C-0.67 9.01 -0.34 8.02 0 7 C1.32 7 2.64 7 4 7 C4 5.02 4 3.04 4 1 C2.68 0.67 1.36 0.34 0 0 Z " fill="#01146A" transform="translate(106,99)"/>
<path d="M0 0 C5.42857143 -0.36190476 5.42857143 -0.36190476 7.875 1.1875 C9.34781139 3.56036279 9.22223194 5.25913944 9 8 C8.34 8 7.68 8 7 8 C7 6.35 7 4.7 7 3 C4.69 2.34 2.38 1.68 0 1 C0 0.67 0 0.34 0 0 Z " fill="#37457D" transform="translate(162,154)"/>
<path d="M0 0 C2.97 0.33 5.94 0.66 9 1 C9 1.66 9 2.32 9 3 C5.7 3 2.4 3 -1 3 C-0.67 2.01 -0.34 1.02 0 0 Z " fill="#0A1F68" transform="translate(189,123)"/>
<path d="M0 0 C2.97 0 5.94 0 9 0 C9 0.33 9 0.66 9 1 C7.02 1 5.04 1 3 1 C2.67 1.99 2.34 2.98 2 4 C-0.5625 5.1875 -0.5625 5.1875 -3 6 C-2.01 4.02 -1.02 2.04 0 0 Z " fill="#E8F0F7" transform="translate(214,117)"/>
<path d="M0 0 C3.96 0 7.92 0 12 0 C12 1.32 12 2.64 12 4 C11.01 4 10.02 4 9 4 C9 3.01 9 2.02 9 1 C6.03 1 3.06 1 0 1 C0 0.67 0 0.34 0 0 Z " fill="#253C8A" transform="translate(189,183)"/>
<path d="M0 0 C0.33 0 0.66 0 1 0 C1 1.65 1 3.3 1 5 C-0.875 6.0625 -0.875 6.0625 -3 7 C-3.66 6.67 -4.32 6.34 -5 6 C-4.67 5.67 -4.34 5.34 -4 5 C-4.66 4.34 -5.32 3.68 -6 3 C-5.195625 2.87625 -4.39125 2.7525 -3.5625 2.625 C-2.716875 2.41875 -1.87125 2.2125 -1 2 C-0.67 1.34 -0.34 0.68 0 0 Z " fill="#122476" transform="translate(73,179)"/>
<path d="M0 0 C0.33 1.32 0.66 2.64 1 4 C1.763125 4.103125 2.52625 4.20625 3.3125 4.3125 C6.17059424 5.04364039 7.15742885 5.76951913 9 8 C3.57142857 8.36190476 3.57142857 8.36190476 1.125 6.8125 C-0.34781139 4.43963721 -0.22223194 2.74086056 0 0 Z " fill="#425283" transform="translate(159,157)"/>
<path d="M0 0 C2.31 1.98 4.62 3.96 7 6 C5.68 6.33 4.36 6.66 3 7 C2.67 5.68 2.34 4.36 2 3 C1.34 3 0.68 3 0 3 C0 2.01 0 1.02 0 0 Z " fill="#243375" transform="translate(208,186)"/>
<path d="M0 0 C2.97 0.495 2.97 0.495 6 1 C5.67 2.32 5.34 3.64 5 5 C4.34 4.34 3.68 3.68 3 3 C2.01 3 1.02 3 0 3 C0 2.01 0 1.02 0 0 Z " fill="#051986" transform="translate(163,156)"/>
<path d="M0 0 C1.32 0.33 2.64 0.66 4 1 C1.03 3.475 1.03 3.475 -2 6 C-2.33 4.68 -2.66 3.36 -3 2 C-2.01 2 -1.02 2 0 2 C0 1.34 0 0.68 0 0 Z " fill="#12246E" transform="translate(210,117)"/>
<path d="M0 0 C1.65 1.65 3.3 3.3 5 5 C3 5 1 5 -1 5 C-0.67 3.35 -0.34 1.7 0 0 Z " fill="#102174" transform="translate(93,85)"/>
</svg>
